<mxfile host="Electron" modified="2024-04-30T13:14:31.636Z" agent="Mozilla/5.0 (Windows NT 10.0; Win64; x64) AppleWebKit/537.36 (KHTML, like Gecko) draw.io/23.1.5 Chrome/120.0.6099.109 Electron/28.1.0 Safari/537.36" etag="9-3jQVEuzK9ucBJY0eGC" version="23.1.5" type="device">
  <diagram name="Page-1" id="nTFQ6Hscd1UfAVkUWd5z">
    <mxGraphModel dx="1219" dy="1822" grid="1" gridSize="10" guides="1" tooltips="1" connect="1" arrows="1" fold="1" page="1" pageScale="1" pageWidth="850" pageHeight="1100" math="0" shadow="0">
      <root>
        <mxCell id="0" />
        <mxCell id="1" parent="0" />
        <mxCell id="VYwZVBMxH9SUH0Yo7baQ-7" style="rounded=0;orthogonalLoop=1;jettySize=auto;html=1;entryX=0;entryY=0.5;entryDx=0;entryDy=0;" edge="1" parent="1" source="VYwZVBMxH9SUH0Yo7baQ-1" target="VYwZVBMxH9SUH0Yo7baQ-2">
          <mxGeometry relative="1" as="geometry" />
        </mxCell>
        <mxCell id="VYwZVBMxH9SUH0Yo7baQ-8" style="edgeStyle=none;rounded=0;orthogonalLoop=1;jettySize=auto;html=1;entryX=0;entryY=0.5;entryDx=0;entryDy=0;strokeColor=default;align=center;verticalAlign=middle;fontFamily=Helvetica;fontSize=11;fontColor=default;labelBackgroundColor=default;endArrow=classic;" edge="1" parent="1" source="VYwZVBMxH9SUH0Yo7baQ-1" target="VYwZVBMxH9SUH0Yo7baQ-3">
          <mxGeometry relative="1" as="geometry" />
        </mxCell>
        <mxCell id="VYwZVBMxH9SUH0Yo7baQ-9" style="edgeStyle=none;rounded=0;orthogonalLoop=1;jettySize=auto;html=1;entryX=0;entryY=0.5;entryDx=0;entryDy=0;strokeColor=default;align=center;verticalAlign=middle;fontFamily=Helvetica;fontSize=11;fontColor=default;labelBackgroundColor=default;endArrow=classic;" edge="1" parent="1" source="VYwZVBMxH9SUH0Yo7baQ-1" target="VYwZVBMxH9SUH0Yo7baQ-4">
          <mxGeometry relative="1" as="geometry" />
        </mxCell>
        <mxCell id="VYwZVBMxH9SUH0Yo7baQ-10" style="edgeStyle=none;rounded=0;orthogonalLoop=1;jettySize=auto;html=1;entryX=0;entryY=0.5;entryDx=0;entryDy=0;strokeColor=default;align=center;verticalAlign=middle;fontFamily=Helvetica;fontSize=11;fontColor=default;labelBackgroundColor=default;endArrow=classic;" edge="1" parent="1" source="VYwZVBMxH9SUH0Yo7baQ-1" target="VYwZVBMxH9SUH0Yo7baQ-5">
          <mxGeometry relative="1" as="geometry" />
        </mxCell>
        <mxCell id="VYwZVBMxH9SUH0Yo7baQ-15" style="edgeStyle=none;rounded=0;orthogonalLoop=1;jettySize=auto;html=1;entryX=0.5;entryY=0;entryDx=0;entryDy=0;strokeColor=default;align=center;verticalAlign=middle;fontFamily=Helvetica;fontSize=11;fontColor=default;labelBackgroundColor=default;endArrow=classic;" edge="1" parent="1" source="VYwZVBMxH9SUH0Yo7baQ-1" target="VYwZVBMxH9SUH0Yo7baQ-11">
          <mxGeometry relative="1" as="geometry" />
        </mxCell>
        <mxCell id="VYwZVBMxH9SUH0Yo7baQ-16" style="edgeStyle=none;rounded=0;orthogonalLoop=1;jettySize=auto;html=1;entryX=0.5;entryY=0;entryDx=0;entryDy=0;strokeColor=default;align=center;verticalAlign=middle;fontFamily=Helvetica;fontSize=11;fontColor=default;labelBackgroundColor=default;endArrow=classic;" edge="1" parent="1" source="VYwZVBMxH9SUH0Yo7baQ-1" target="VYwZVBMxH9SUH0Yo7baQ-12">
          <mxGeometry relative="1" as="geometry" />
        </mxCell>
        <mxCell id="VYwZVBMxH9SUH0Yo7baQ-17" style="edgeStyle=none;rounded=0;orthogonalLoop=1;jettySize=auto;html=1;entryX=0.5;entryY=0;entryDx=0;entryDy=0;strokeColor=default;align=center;verticalAlign=middle;fontFamily=Helvetica;fontSize=11;fontColor=default;labelBackgroundColor=default;endArrow=classic;" edge="1" parent="1" source="VYwZVBMxH9SUH0Yo7baQ-1" target="VYwZVBMxH9SUH0Yo7baQ-14">
          <mxGeometry relative="1" as="geometry" />
        </mxCell>
        <mxCell id="VYwZVBMxH9SUH0Yo7baQ-18" style="edgeStyle=none;rounded=0;orthogonalLoop=1;jettySize=auto;html=1;entryX=0.5;entryY=0;entryDx=0;entryDy=0;strokeColor=default;align=center;verticalAlign=middle;fontFamily=Helvetica;fontSize=11;fontColor=default;labelBackgroundColor=default;endArrow=classic;" edge="1" parent="1" source="VYwZVBMxH9SUH0Yo7baQ-1" target="VYwZVBMxH9SUH0Yo7baQ-13">
          <mxGeometry relative="1" as="geometry" />
        </mxCell>
        <mxCell id="VYwZVBMxH9SUH0Yo7baQ-21" style="edgeStyle=none;rounded=0;orthogonalLoop=1;jettySize=auto;html=1;entryX=0;entryY=0.5;entryDx=0;entryDy=0;strokeColor=default;align=center;verticalAlign=middle;fontFamily=Helvetica;fontSize=11;fontColor=default;labelBackgroundColor=default;endArrow=classic;" edge="1" parent="1" source="VYwZVBMxH9SUH0Yo7baQ-1" target="VYwZVBMxH9SUH0Yo7baQ-19">
          <mxGeometry relative="1" as="geometry" />
        </mxCell>
        <mxCell id="VYwZVBMxH9SUH0Yo7baQ-27" style="edgeStyle=none;rounded=0;orthogonalLoop=1;jettySize=auto;html=1;entryX=0;entryY=0.5;entryDx=0;entryDy=0;strokeColor=default;align=center;verticalAlign=middle;fontFamily=Helvetica;fontSize=11;fontColor=default;labelBackgroundColor=default;endArrow=classic;" edge="1" parent="1" source="VYwZVBMxH9SUH0Yo7baQ-1" target="VYwZVBMxH9SUH0Yo7baQ-22">
          <mxGeometry relative="1" as="geometry" />
        </mxCell>
        <mxCell id="VYwZVBMxH9SUH0Yo7baQ-28" style="edgeStyle=none;rounded=0;orthogonalLoop=1;jettySize=auto;html=1;entryX=0;entryY=0.5;entryDx=0;entryDy=0;strokeColor=default;align=center;verticalAlign=middle;fontFamily=Helvetica;fontSize=11;fontColor=default;labelBackgroundColor=default;endArrow=classic;" edge="1" parent="1" source="VYwZVBMxH9SUH0Yo7baQ-1" target="VYwZVBMxH9SUH0Yo7baQ-23">
          <mxGeometry relative="1" as="geometry" />
        </mxCell>
        <mxCell id="VYwZVBMxH9SUH0Yo7baQ-29" style="edgeStyle=none;rounded=0;orthogonalLoop=1;jettySize=auto;html=1;entryX=0;entryY=0.5;entryDx=0;entryDy=0;strokeColor=default;align=center;verticalAlign=middle;fontFamily=Helvetica;fontSize=11;fontColor=default;labelBackgroundColor=default;endArrow=classic;" edge="1" parent="1" source="VYwZVBMxH9SUH0Yo7baQ-1" target="VYwZVBMxH9SUH0Yo7baQ-24">
          <mxGeometry relative="1" as="geometry" />
        </mxCell>
        <mxCell id="VYwZVBMxH9SUH0Yo7baQ-30" style="edgeStyle=none;rounded=0;orthogonalLoop=1;jettySize=auto;html=1;entryX=0;entryY=0.5;entryDx=0;entryDy=0;strokeColor=default;align=center;verticalAlign=middle;fontFamily=Helvetica;fontSize=11;fontColor=default;labelBackgroundColor=default;endArrow=classic;" edge="1" parent="1" source="VYwZVBMxH9SUH0Yo7baQ-1" target="VYwZVBMxH9SUH0Yo7baQ-25">
          <mxGeometry relative="1" as="geometry" />
        </mxCell>
        <mxCell id="VYwZVBMxH9SUH0Yo7baQ-31" style="edgeStyle=none;rounded=0;orthogonalLoop=1;jettySize=auto;html=1;entryX=0;entryY=0.5;entryDx=0;entryDy=0;strokeColor=default;align=center;verticalAlign=middle;fontFamily=Helvetica;fontSize=11;fontColor=default;labelBackgroundColor=default;endArrow=classic;" edge="1" parent="1" source="VYwZVBMxH9SUH0Yo7baQ-1" target="VYwZVBMxH9SUH0Yo7baQ-26">
          <mxGeometry relative="1" as="geometry" />
        </mxCell>
        <mxCell id="VYwZVBMxH9SUH0Yo7baQ-1" value="User" style="shape=umlActor;verticalLabelPosition=bottom;verticalAlign=top;html=1;outlineConnect=0;" vertex="1" parent="1">
          <mxGeometry x="40" y="300" width="30" height="60" as="geometry" />
        </mxCell>
        <mxCell id="VYwZVBMxH9SUH0Yo7baQ-2" value="View list of Car Sales" style="ellipse;whiteSpace=wrap;html=1;" vertex="1" parent="1">
          <mxGeometry x="180" y="-20" width="140" height="80" as="geometry" />
        </mxCell>
        <mxCell id="VYwZVBMxH9SUH0Yo7baQ-3" value="Add car sale" style="ellipse;whiteSpace=wrap;html=1;" vertex="1" parent="1">
          <mxGeometry x="340" y="-20" width="140" height="80" as="geometry" />
        </mxCell>
        <mxCell id="VYwZVBMxH9SUH0Yo7baQ-4" value="Remove car sale" style="ellipse;whiteSpace=wrap;html=1;" vertex="1" parent="1">
          <mxGeometry x="490" y="10" width="140" height="80" as="geometry" />
        </mxCell>
        <mxCell id="VYwZVBMxH9SUH0Yo7baQ-5" value="Update car sale" style="ellipse;whiteSpace=wrap;html=1;" vertex="1" parent="1">
          <mxGeometry x="610" y="70" width="140" height="80" as="geometry" />
        </mxCell>
        <mxCell id="VYwZVBMxH9SUH0Yo7baQ-11" value="View list of leases" style="ellipse;whiteSpace=wrap;html=1;" vertex="1" parent="1">
          <mxGeometry x="160" y="590" width="140" height="80" as="geometry" />
        </mxCell>
        <mxCell id="VYwZVBMxH9SUH0Yo7baQ-12" value="Add lease" style="ellipse;whiteSpace=wrap;html=1;" vertex="1" parent="1">
          <mxGeometry x="300" y="660" width="140" height="80" as="geometry" />
        </mxCell>
        <mxCell id="VYwZVBMxH9SUH0Yo7baQ-13" value="Remove lease" style="ellipse;whiteSpace=wrap;html=1;" vertex="1" parent="1">
          <mxGeometry x="590" y="740" width="140" height="80" as="geometry" />
        </mxCell>
        <mxCell id="VYwZVBMxH9SUH0Yo7baQ-14" value="Updatelease" style="ellipse;whiteSpace=wrap;html=1;" vertex="1" parent="1">
          <mxGeometry x="440" y="720" width="140" height="80" as="geometry" />
        </mxCell>
        <mxCell id="VYwZVBMxH9SUH0Yo7baQ-19" value="View list of other entities" style="ellipse;whiteSpace=wrap;html=1;" vertex="1" parent="1">
          <mxGeometry x="610" y="190" width="140" height="80" as="geometry" />
        </mxCell>
        <mxCell id="VYwZVBMxH9SUH0Yo7baQ-22" value="View statistic data for leases" style="ellipse;whiteSpace=wrap;html=1;" vertex="1" parent="1">
          <mxGeometry x="750" y="230" width="140" height="80" as="geometry" />
        </mxCell>
        <mxCell id="VYwZVBMxH9SUH0Yo7baQ-23" value="View statistic data for sales" style="ellipse;whiteSpace=wrap;html=1;" vertex="1" parent="1">
          <mxGeometry x="750" y="320" width="140" height="80" as="geometry" />
        </mxCell>
        <mxCell id="VYwZVBMxH9SUH0Yo7baQ-24" value="View metrics for sales" style="ellipse;whiteSpace=wrap;html=1;" vertex="1" parent="1">
          <mxGeometry x="750" y="410" width="140" height="80" as="geometry" />
        </mxCell>
        <mxCell id="VYwZVBMxH9SUH0Yo7baQ-25" value="View metrics for leases" style="ellipse;whiteSpace=wrap;html=1;" vertex="1" parent="1">
          <mxGeometry x="750" y="500" width="140" height="80" as="geometry" />
        </mxCell>
        <mxCell id="VYwZVBMxH9SUH0Yo7baQ-26" value="Export statistics data" style="ellipse;whiteSpace=wrap;html=1;" vertex="1" parent="1">
          <mxGeometry x="570" y="570" width="140" height="80" as="geometry" />
        </mxCell>
      </root>
    </mxGraphModel>
  </diagram>
</mxfile>
